<?xml version="1.0" encoding="iso-8859-1"?>
<!-- Generator: Adobe Illustrator 18.0.0, SVG Export Plug-In . SVG Version: 6.00 Build 0)  -->
<!DOCTYPE svg PUBLIC "-//W3C//DTD SVG 1.1//EN" "http://www.w3.org/Graphics/SVG/1.1/DTD/svg11.dtd">
<svg version="1.1" id="Capa_1" xmlns="http://www.w3.org/2000/svg" xmlns:xlink="http://www.w3.org/1999/xlink" x="0px" y="0px"
	 viewBox="0 0 89.471 89.471" style="enable-background:new 0 0 89.471 89.471;" xml:space="preserve">
<g>
	<g>
		<path d="M41.67,54.668c0.001-0.006,0.004-0.011,0.004-0.014c0,0.003-0.003,0.005-0.005,0.007
			C41.669,54.664,41.67,54.666,41.67,54.668z"/>
		<path d="M59.609,32.795c0.188-1.571,0.74-2.97,1.603-4.293c0.326-0.499-0.394-1.075-0.738-0.574
			c-0.316,0.457-0.59,0.935-0.847,1.416c-0.031-0.423-0.069-0.847-0.121-1.267c0.505-1.064,0.909-2.135,0.477-3.328
			c-0.059-0.157-0.288-0.089-0.276,0.068c0.034,0.614-0.149,1.171-0.442,1.703c-0.129-0.704-0.285-1.401-0.465-2.085
			c0.081-0.426,0.081-0.917,0.155-1.314c0.154-0.823,0.407-1.623,0.651-2.424c0.135-0.438-0.491-0.729-0.669-0.283
			c-0.26,0.644-0.519,1.289-0.775,1.934c-0.037-0.108-0.07-0.218-0.11-0.326c-0.144-0.399-0.301-0.789-0.472-1.171v-0.01
			c0.075-0.438,0.212-0.885,0.319-1.32c0.159-0.651,0.42-1.512-0.199-1.995c-0.094-0.071-0.256,0.006-0.231,0.13
			c0.132,0.689-0.29,1.245-0.575,1.834c-0.294-0.532-0.607-1.051-0.947-1.544c0.196-1.077,0.388-2.179-0.173-3.089
			c-0.115-0.183-0.349-0.031-0.35,0.14c-0.001,0.552-0.217,1.134-0.445,1.676c-0.39-0.466-0.797-0.909-1.226-1.331
			c0.01-0.059,0.021-0.117,0.031-0.175c0.102-0.606,0.247-1.228-0.052-1.802c-0.137-0.268-0.509-0.241-0.572,0.065
			c-0.07,0.315-0.222,0.654-0.397,1.005c-0.546-0.462-1.11-0.905-1.704-1.304c0.039-0.326,0.091-0.649,0.145-0.971
			c0.092-0.568,0.357-1.643-0.086-2.138c-0.142-0.158-0.423-0.027-0.339,0.19c0.131,0.337-0.238,0.9-0.382,1.19
			c-0.163,0.334-0.313,0.676-0.456,1.023c-0.565-0.331-1.146-0.638-1.743-0.913c-0.001-0.007-0.002-0.012-0.002-0.021
			c-0.024-0.342,0.063-0.701,0.1-1.042c0.067-0.62-0.119-1.208-0.705-1.493c-0.092-0.044-0.192,0.079-0.123,0.159
			c0.396,0.462,0.064,1.277-0.126,2.021c-0.592-0.244-1.195-0.467-1.811-0.658c0.025-0.793,0.197-1.595,0.043-2.375
			c-0.042-0.211-0.343-0.356-0.485-0.138c-0.015,0.025-0.025,0.045-0.033,0.065C45.053,8.029,45.051,8.03,45.05,8.03
			c-0.04,0.071-0.082,0.15-0.123,0.228c-0.022,0.023-0.044,0.047-0.05,0.055c-0.023,0.024-0.024,0.053-0.022,0.081
			c-0.277,0.533-0.529,1.122-0.629,1.717c-0.549-0.139-1.102-0.264-1.662-0.359c0.048-0.347,0.127-0.682,0.136-1.033
			c0.017-0.512,0.042-1.179-0.433-1.5c-0.139-0.095-0.366-0.003-0.334,0.187c0.095,0.552-0.165,1.047-0.299,1.564
			c-0.049,0.181-0.114,0.394-0.17,0.618c-0.84-0.107-1.687-0.176-2.535-0.191c-0.04-0.371-0.124-0.754-0.116-1.069
			c0.018-0.691,0.104-1.354,0.059-2.048c-0.01-0.145-0.223-0.173-0.275-0.039c-0.277,0.704-0.538,1.385-0.704,2.129
			c-0.063,0.279-0.124,0.666-0.116,1.037c-0.813,0.025-1.629,0.088-2.435,0.199V9.578c0.001-0.012-0.011-0.024-0.015-0.037
			c0.267-1.073,0.79-2.565-0.453-3.049c-0.131-0.052-0.259,0.1-0.171,0.216c0.701,0.934-0.489,2.128-0.648,3.076
			c-0.002,0.013,0.003,0.023-0.001,0.036c-0.876,0.168-1.743,0.384-2.594,0.656c-0.021-0.169-0.031-0.335-0.036-0.477
			c-0.008-0.213,0.021-0.429,0.051-0.639c0.018-0.101,0.008-0.297,0.049-0.354c0.188-0.266-0.081-0.752-0.421-0.563
			c-0.489,0.269-0.646,0.82-0.744,1.337c-0.069,0.359-0.095,0.736-0.048,1.1c-1.026,0.389-2.026,0.853-2.985,1.4
			c-5.352,3.052-9.437,8.083-11.754,13.754c-0.837,2.051-1.064,4.071-0.868,6.047c-0.079,0.452-0.085,0.933-0.067,1.397
			c0.014,0.395,0.288,1.236,0.144,1.56c-0.306,0.687-0.274,1.522-0.27,2.259c0.006,0.833,1.37,0.837,1.445,0.02
			c0.015-0.131,0.018-0.263,0.022-0.394c0.399,0.962,0.869,1.91,1.385,2.84c-0.027,0.844-0.044,1.689-0.046,2.533
			c-0.001,0.262,0.227,0.484,0.441,0.59c0.208,0.104,0.339,0.109,0.549,0.007c0.324-0.159,0.457-0.406,0.46-0.761v-0.046
			c0.201,0.31,0.41,0.615,0.624,0.919c-0.089,0.407-0.18,0.812-0.239,1.223c-0.109,0.755-0.224,1.978,0.476,2.475
			c0.251,0.178,0.559,0.035,0.626-0.254c0.085-0.37-0.05-0.644-0.119-1.015c-0.091-0.48-0.141-0.949-0.146-1.439
			c0-0.052,0.005-0.101,0.005-0.152c0.564,0.757,1.171,1.479,1.798,2.182c-0.081,1.634-1.391,5.107,0.597,5.563
			c0.195,0.043,0.385-0.127,0.413-0.312c0.074-0.469-0.152-0.843-0.23-1.296c-0.091-0.509,0.013-1.045,0.101-1.546
			c0.074-0.417,0.158-0.829,0.222-1.242c1.525,1.528,3.213,2.875,5.07,3.967c-0.029,0.039-0.061,0.073-0.081,0.126
			c-0.549,1.361-0.988,2.872-0.807,4.354c0.073,0.591,0.865,0.839,1.232,0.344c0.087-0.116,0.102-0.218,0.128-0.333
			c0.003,0.004,0.007,0.006,0.011,0.009c-0.001-0.017-0.001-0.033,0.001-0.051c0.002-0.014,0.003-0.028,0.01-0.043
			c0.038-0.121,0.028-0.229-0.004-0.33c0.022-1.209,0.016-2.36,0.365-3.556c0.004-0.012,0-0.023,0.003-0.034
			c0.646,0.341,1.319,0.649,2.008,0.924c-0.02,0.051-0.051,0.095-0.059,0.154c-0.225,1.429-0.655,2.783-0.602,4.249
			c0.018,0.569,0.898,0.839,1.205,0.339c0.107-0.171,0.185-0.327,0.22-0.527c0.019-0.111-0.015-0.22-0.068-0.315
			c0.022-1.17,0.355-2.299,0.54-3.451c0.745,0.228,1.48,0.38,2.205,0.477c-0.124,0.265-0.222,0.545-0.304,0.823
			c-0.206,0.723-0.317,1.44-0.121,2.174c0.111,0.421,0.765,0.6,1.079,0.309c0.246-0.228,0.426-0.649,0.257-0.973
			c-0.056-0.718-0.13-1.694,0.328-2.225c1.683,0.07,3.321-0.17,4.943-0.572c-0.072,0.483-0.135,0.968-0.044,1.452
			c0.039,0.209,0.158,0.428,0.364,0.518c0.065,0.065,0.125,0.124,0.203,0.178c0.282,0.197,0.799,0.004,0.712-0.399
			c-0.015-0.056-0.017-0.088-0.017-0.109c-0.001,0.029-0.017,0.079-0.079,0.146c0.036-0.036,0.056-0.097,0.078-0.152
			c0.001-0.024,0.005-0.022,0.005-0.007c0.042-0.106,0.067-0.225,0.051-0.322c-0.038-0.227-0.033-0.435-0.006-0.664
			c0.047-0.383,0.179-0.72,0.294-1.078c0.831-0.261,1.658-0.552,2.483-0.864c0.125,0.042,0.255,0.058,0.393,0.051
			c-0.056,0.265-0.098,0.529-0.097,0.806c0,0.483,0.167,0.996,0.626,1.227c0.464,0.231,1.016-0.131,1.134-0.596
			c0.041-0.162-0.108-0.338-0.264-0.353c-0.079-0.008-0.157,0-0.234,0.003c-0.079-0.212-0.092-0.424-0.124-0.664
			c-0.037-0.266-0.048-0.547-0.026-0.817c0.489-0.239,0.975-0.489,1.445-0.77c0.194-0.077,0.392-0.153,0.588-0.229
			c-0.061,0.121-0.117,0.243-0.173,0.356c-0.27,0.549-0.478,1.32-0.014,1.82c0.241,0.262,0.564,0.262,0.811,0.007
			c0.186-0.19,0.384-0.496,0.19-0.754c-0.059-0.081-0.139-0.118-0.22-0.139c-0.029-0.235-0.011-0.475,0.03-0.711
			c0.058-0.318,0.217-0.803,0.461-1.027c0.154-0.142,0.137-0.341,0.038-0.469c2.059-1.501,3.865-3.367,5.433-5.409
			c-0.12,0.853-0.29,1.639,0.202,2.452c0.188,0.311,0.597,0.279,0.79,0c0.628-0.904,0.593-2.06,0.66-3.127
			c0.044-0.699,0.091-1.359,0.107-2.022c0.01-0.014,0.021-0.025,0.03-0.038c0.267-0.369,0.504-0.755,0.754-1.133
			c-0.07,0.547-0.06,1.076,0.052,1.655c0.049,0.26,0.447,0.243,0.508,0c0.207-0.836,0.39-1.621,0.505-2.479
			c0.048-0.362,0.119-0.773,0.122-1.171c0.197-0.366,0.412-0.72,0.594-1.104c0.205-0.435,0.408-0.895,0.616-1.357
			c0.163-0.866,0.398-1.711,0.673-2.546c-0.2-0.044-0.408-0.027-0.582,0.072c0.013-0.1,0.033-0.195,0.043-0.293
			C59.581,32.909,59.605,32.849,59.609,32.795z M56.154,33.613c-0.258-0.165-0.646-0.152-0.816,0.21
			c-0.454,0.973-0.474,2.165-0.171,3.192c-0.174,0.438-0.362,0.871-0.571,1.297c-0.126,0.256-0.26,0.504-0.397,0.745
			c0.048-0.259,0.095-0.519,0.136-0.778c0.119-0.746-1.064-0.917-1.159-0.167c-0.147,1.164-0.344,2.298-0.701,3.413
			c-0.478,0.572-0.983,1.109-1.507,1.629c0.093-0.867,0.183-1.725,0.574-2.547c0.111-0.234-0.22-0.404-0.379-0.22
			c-0.877,1.018-1.431,2.529-1.573,3.862c-0.008,0.075,0.005,0.134,0.016,0.196c-0.689,0.625-1.396,1.235-2.101,1.854
			c0.059-0.774,0.258-1.536,0.645-2.215c0.386-0.668-0.824-1.226-1.126-0.476c-0.438,1.103-0.912,2.544-0.751,3.805
			c-0.826,0.768-1.63,1.566-2.376,2.446c-0.025,0.031-0.032,0.066-0.055,0.096c-2.732,0.607-5.467,1.084-8.37,0.886
			c-5.52-0.375-9.718-4.564-12.959-8.611c-1.268-1.582-2.541-3.386-3.493-5.32c0.028-0.245,0.048-0.491,0.083-0.737
			c0.071-0.522-0.351-0.805-0.757-0.8c-0.774-2.013-1.132-4.133-0.743-6.264c0.956-5.251,5.101-9.936,9.154-13.113
			c4.27-3.346,10.316-3.904,15.505-3.259c6.386,0.79,10.548,4.576,12.876,10.427c0.495,1.246,0.854,2.53,1.074,3.83
			c-0.076,0.35-0.107,0.706-0.055,1.064c0.028,0.182,0.121,0.344,0.246,0.472C56.549,30.231,56.464,31.943,56.154,33.613z"/>
	</g>
	<path d="M74.027,66.17c-1.096-1.455-8.911-12.684-12.826-12.688c-0.703-0.091-1.478-0.021-2.066,0.342
		c-0.241-0.558-0.663-1.06-1.075-1.51c-0.121-0.132-0.229-0.282-0.334-0.437c-0.023-0.087-0.049-0.173-0.063-0.266
		c1.183-0.953,2.323-1.915,3.408-2.831c5.968-5.052,9.398-13.939,7.358-21.526c-1.032-3.833-1.817-8.248-3.957-11.628
		c-2.255-3.564-5.086-6.26-8.553-8.586C48.793,2.259,41.024-1.37,32.259,0.502c-2.983,0.638-5.619,2.131-8.096,3.854
		c-3.66,1.252-6.943,4.122-9.608,7.582c-1.571,1.491-2.98,3.102-3.925,4.869c-1.052,1.968-1.604,3.961-1.899,6.029
		c-0.258,0.769-0.479,1.519-0.655,2.237c-1.602,6.499-1.135,19.613,5.041,24.914c0.518,0.739,1.187,1.392,1.93,1.957
		c0.147,0.111,0.283,0.223,0.425,0.334c0.119,0.122,0.254,0.225,0.378,0.34c0.975,1.089,2.068,2.059,3.301,2.806
		c0.432,0.419,0.889,0.76,1.393,0.947c4.007,3.354,8.721,5.433,14.694,5.217c4.128-0.149,8.454-2.183,12.271-3.622
		c0.099-0.036,0.194-0.087,0.295-0.127c0.272,0.411,0.593,0.782,0.915,1.151c0.111,0.264,0.229,0.524,0.376,0.773
		c0.159,0.271,0.325,0.561,0.499,0.85c-0.251,0.516-0.422,1.275-0.489,1.968c-0.214,0.698-0.048,1.533,0.321,2.396
		c0.486,2.721,2.822,5.229,4.847,7.723c1.903,2.847,3.928,5.619,6.306,8.032c2.369,2.405,5.346,9.443,9.577,8.683
		c3.343-0.602,8.772-3.923,10.527-7.468C85.965,79.036,75.716,68.415,74.027,66.17z M67.982,62.308
		c0.437,0.514,0.866,1.032,1.297,1.55c-0.337,1.256-0.441,2.451-0.423,3.758c0.033,2.353-0.563,4.796-0.909,7.118
		c-0.331,2.238-1.061,4.459-1.806,6.596c-0.263,0.75-0.383,1.314-0.215,1.926c-0.465-0.565-0.932-1.128-1.411-1.674
		c0.12-0.115,0.224-0.262,0.273-0.466c0.13-0.54,0.153-0.681,0.126-0.993c0.361-2.886,0.922-5.724,1.371-8.604
		c0.243-1.56,0.689-3.104,0.931-4.672C67.449,65.351,67.419,63.728,67.982,62.308z M65.654,59.606
		c0.494,0.559,0.973,1.131,1.46,1.693c-0.017,0.024-0.04,0.04-0.054,0.066c-1.384,2.608-1.189,6.209-1.875,9.087
		c-0.747,3.14-1.75,6.412-2.037,9.653c-0.085-0.089-0.168-0.188-0.254-0.274c-0.44-0.446-0.866-0.906-1.288-1.376
		c0.265-0.046,0.509-0.193,0.621-0.466l0.003,0.002c1.099-2.923,1.25-6.225,1.817-9.287c0.595-3.191,1.011-6.317,1.267-9.519
		C65.442,59.352,65.561,59.501,65.654,59.606z M64.343,57.939c-0.723,6.485-2.154,13.051-3.701,19.413
		c-0.509-0.601-1.008-1.211-1.496-1.832c0.419,0.236,0.94-0.099,0.896-0.602c0.006,0.003,0.013,0.004,0.019,0.006
		c-0.193-1.284,0.258-2.399,0.515-3.634c0.385-1.854,0.662-3.722,1.095-5.57c0.442-1.898,0.358-3.494,0.492-5.444
		c0.059-0.861,0.383-2.802,0.813-3.889C63.46,56.861,63.926,57.415,64.343,57.939z M59.405,57.28
		c0.329-0.572,0.599-1.177,0.83-1.762c0.402-0.038,0.808-0.063,1.201-0.143c0.036-0.009,0.07-0.028,0.105-0.041
		c0.269,0.118,0.542,0.284,0.816,0.5c-1.876,2.662-1.457,6.683-2.264,9.657c-0.554,2.042-0.958,4.099-1.391,6.166
		c-0.246,1.176-0.6,2.17-0.111,3.149c-0.184-0.239-0.357-0.484-0.538-0.725c-0.006-0.008-0.012-0.016-0.017-0.021
		c-0.206-0.298-0.438-0.604-0.678-0.913c-0.227-0.311-0.466-0.615-0.689-0.927c0.019-0.037,0.046-0.063,0.057-0.105
		c1.581-2.878,1.611-6.647,1.974-9.841C58.866,60.794,59.87,58.8,59.405,57.28z M52.979,65.154
		c-0.021-1.199,0.573-2.451-0.014-3.565c0.496-0.136,0.938-0.381,1.38-0.674c0.098-0.03,0.193-0.052,0.293-0.088
		c-0.011,0.031-0.028,0.054-0.033,0.088c-0.2,1.253-0.504,2.452-0.453,3.731c0.046,1.248-0.148,2.486-0.219,3.733
		c-0.517-0.682-1.075-1.417-1.551-2.188c0.226,0.028,0.473-0.083,0.592-0.316c0.053-0.106,0.088-0.225,0.129-0.337
		C53.16,65.385,53.096,65.236,52.979,65.154z M53.008,59.274c-0.231,0.083-0.467,0.161-0.704,0.238
		c-0.115-0.157-0.266-0.277-0.438-0.358c-0.359-0.596-0.909-1.047-1.222-1.669c-0.139-0.277-0.334-0.501-0.547-0.708
		c1.921-1.007,3.786-2.26,5.571-3.608c0.203,0.505,0.544,0.958,1.02,1.406c0.047,0.046,0.086,0.082,0.129,0.123
		c0.172,0.268,0.348,0.526,0.579,0.729c0.047,0.234-0.108,0.479-0.529,0.889c-0.47,0.457-1.021,0.837-1.549,1.219
		C54.572,58.076,53.81,58.774,53.008,59.274z M51.496,63.803c0.106-0.448,0.097-0.932,0.144-1.386
		c0.005-0.038,0.008-0.068,0.011-0.104c0.058-0.005,0.116,0.003,0.17-0.012c0.168-0.045,0.303-0.104,0.421-0.172
		c0.029,0.529-0.175,1.128-0.288,1.603c-0.104,0.441-0.165,0.86-0.147,1.281C51.669,64.613,51.565,64.21,51.496,63.803z
		 M58.465,58.571c-0.288,1.433-1.037,3.072-1.218,4.269c-0.4,2.69-0.988,5.234-1.671,7.834c-0.149-0.215-0.3-0.43-0.446-0.641
		c0.304-0.556,0.515-1.233,0.145-1.792c-0.015-0.024-0.041-0.028-0.059-0.043c0.021-0.356,0.043-0.71,0.08-1.067
		c0.055-0.54,0.3-1.25,0.217-1.785c-0.232-1.484,0.101-2.796,0.327-4.252c0.051-0.321-0.128-0.525-0.357-0.62
		c0.609-0.288,1.199-0.625,1.718-0.897C57.683,59.322,58.098,58.971,58.465,58.571z M44.031,56.458
		c-3.843,1.517-8.332,2.783-12.453,2.196c-4.153-0.59-7.462-2.523-10.23-5.141c-0.482-0.642-1.066-1.228-1.715-1.769
		c-0.4-0.453-0.793-0.918-1.171-1.397c-0.175,0.11-0.407,0.13-0.571-0.031c-0.136-0.132-0.267-0.277-0.399-0.418
		c-0.01,0.001-0.019,0-0.03,0.001c-0.345-0.339-0.685-0.676-1.011-1.018c-1.625-1.69-2.686-4.443-3.797-6.5
		c-0.205-0.38-0.415-0.752-0.623-1.126c-0.064-0.315-0.129-0.631-0.172-0.946c-0.11-0.206-0.231-0.411-0.326-0.62
		c-0.016-0.145-0.033-0.287-0.05-0.43c-0.663-1.878-0.936-3.867-0.599-5.763c-0.186-2.511-0.212-5.025,0.174-7.601
		c0.787-5.271,4.287-10.951,8.521-15.537c4.889-4.136,10.846-7.493,16.776-7.908c3.328-0.232,8.369,0.951,11.272,2.688
		c2.979,1.783,6.712,3.284,9.122,5.869c0.994,1.07,2.289,1.67,3.198,2.887c1.216,1.623,2.566,3.176,3.402,5.044
		c1.468,3.277,2.512,7.948,3.092,11.441c1.415,8.519-5.691,15.57-11.81,20.109C51.266,52.986,47.933,54.922,44.031,56.458z
		 M72.756,83.07c-0.245,1.136-0.606,2.087-0.538,3.228c-1.617,0.835-3.051,1.149-3.66,0.334c-0.054-0.072-0.113-0.146-0.168-0.217
		c0.054-0.142,0.033-0.316-0.074-0.43c-0.424-0.438-0.847-0.878-1.271-1.322c-0.104-0.133-0.2-0.263-0.305-0.396
		c0.383,0.02,0.805-0.265,0.871-0.663c0.075-0.455,0.1-0.575,0.065-0.989c-0.004-0.039-0.015-0.073-0.027-0.105
		c0.124-0.949,0.483-1.917,0.724-2.808c0.513-1.892,0.92-3.782,1.19-5.723c0.209-1.492,0.42-2.985,0.628-4.478
		c0.198-1.422,0.07-2.822,0.241-4.225c0.307,0.381,0.615,0.758,0.917,1.143c0.224,0.285,0.469,0.578,0.719,0.873
		c-0.686,3.418-0.581,6.996-1.612,10.339c-0.417,1.349-0.596,2.795-0.827,4.183c-0.232,1.403-0.825,2.258-0.54,3.685
		c0.195,0.964,1.507,0.796,1.501-0.172c-0.002-0.39,0.003-0.541-0.029-0.705c0.028-1.213,0.479-2.452,0.633-3.651
		c0.204-1.617,0.67-3.151,1.008-4.738c0.535-2.516,0.615-5.097,1.004-7.637c0.541,0.611,1.11,1.243,1.675,1.891
		c-0.004,0.006-0.006,0.007-0.008,0.011c-0.864,2.632-0.875,5.479-1.475,8.19C73.076,80.145,73.071,81.613,72.756,83.07z
		 M78.229,81.496c-0.397,0.491-0.928,1.041-1.535,1.599c0.09-0.604,0.225-1.198,0.31-1.803c0.27-1.916,0.734-3.782,1.05-5.696
		c0.111-0.696-0.976-0.852-1.081-0.156c-0.208,1.345-0.557,2.658-0.826,3.988c-0.185,0.914-0.193,1.832-0.377,2.75
		c-0.049,0.245-0.264,1.221-0.167,1.857c-0.564,0.456-1.163,0.9-1.765,1.301c0.546-1.363,0.738-3.135,0.74-4.339
		c0.001-1.764,0.607-3.562,0.942-5.282c0.26-1.34,0.185-2.607,0.454-3.919c1.038,1.286,1.97,2.635,2.605,4.027
		c-0.287,1.008-0.339,2.147-0.333,3.147C78.251,79.878,78.48,80.581,78.229,81.496z"/>
	<path d="M23.335,23.627c-2.354,2.986-2.206,7.101-0.934,10.809c-0.136,0.085-0.239,0.221-0.259,0.392
		c-0.405,3.698,3.916,9.599,7.643,5.847c1.9-1.911,2.183-4.632,2.355-7.205c0.116-1.738,0.008-3.484,0.107-5.22
		c0.071-1.256,0.526-2.456,0.543-3.724C32.868,18.374,25.923,20.342,23.335,23.627z M30.496,24.492
		c-0.018,0.699-0.214,1.418-0.352,2.1c-0.619,3.044-0.217,6.203-0.699,9.278c-0.213,1.354-0.649,2.84-1.972,3.504
		c-0.429,0.212-0.875,0.069-1.316-0.278c-1.656-3.225-2.723-6.891-2.445-10.51c0.15-1.983,1.155-3.873,2.788-4.994
		C27.332,23.018,30.578,21.378,30.496,24.492z"/>
	<path d="M35.068,41.635c-0.82-0.1-1.676-0.179-2.334,0.423c-0.698,0.64-0.919,1.564-1.481,2.291
		c-0.132,0.172,0.048,0.45,0.258,0.362c-0.257,0.507-0.454,0.99-0.421,1.636c0.052,1.084,1.437,1.488,2.286,1.667
		c1.622,0.341,3.077-0.803,3.548-2.314C37.397,44.184,36.897,41.861,35.068,41.635z M34.981,44.632
		c-0.054,0.619-0.438,1.189-1.073,1.253c-0.155,0.014-0.912-0.148-0.922-0.164c-0.08-0.149,0.04-0.479,0.021-0.644
		c-0.032-0.271-0.05-0.544-0.085-0.815c-0.025-0.206-0.138-0.344-0.279-0.421c0.383-0.318,0.779-0.585,1.195-0.564
		c0.187,0.009,0.366,0.082,0.539,0.146c0.091,0.035,0.183,0.066,0.273,0.098c0.014,0.022,0.026,0.033,0.044,0.06
		C34.921,43.896,35.013,44.245,34.981,44.632z"/>
	<path d="M24.076,49.802c-0.376,0.805-1.327,3.236,0.072,3.573c0.202,0.05,0.442-0.101,0.513-0.288
		c0.081-0.214,0.072-0.385,0.032-0.604c-0.042-0.234-0.005-0.467,0.039-0.699c0.096-0.512,0.328-1.007,0.566-1.466
		C25.69,49.565,24.441,49.022,24.076,49.802z"/>
	<path d="M37.962,53.576c-0.174-0.138-0.375,0.052-0.321,0.241c0.094,0.329-0.194,0.717-0.329,1.002
		c-0.194,0.405-0.248,0.878,0.056,1.24c0.397,0.471,1.043,0.055,0.899-0.498C38.085,54.859,38.665,54.131,37.962,53.576z"/>
	<path d="M51.571,47.786c-0.272,0.214-0.344,0.541-0.396,0.868c-0.063,0.413-0.128,0.831,0.014,1.228
		c0.079,0.219,0.423,0.29,0.561,0.081c0.182-0.282,0.193-0.489,0.164-0.819c-0.021-0.268-0.141-0.732,0.058-0.954
		C52.184,47.945,51.824,47.588,51.571,47.786z"/>
</g>
<g>
</g>
<g>
</g>
<g>
</g>
<g>
</g>
<g>
</g>
<g>
</g>
<g>
</g>
<g>
</g>
<g>
</g>
<g>
</g>
<g>
</g>
<g>
</g>
<g>
</g>
<g>
</g>
<g>
</g>
</svg>
